<svg xmlns="http://www.w3.org/2000/svg" width="228" height="48"><g fill="#3d9"><path d="M220.5 7.9c-.1-.1-.2-.1-.3 0l-25.8 25.5c-.1.1-.1.2 0 .3l5 6.3-.9 7c0 .1 0 .2.1.2h.1c.1 0 .1 0 .2-.1l21.7-39c.1 0 0-.2-.1-.2zM228 16.9l-5.1-9c0-.1-.1-.1-.2-.1s-.1 0-.2.1l-3.4 6.2v.2c0 .1.1.1.1.1l8.5 2.7h.1c.1 0 .1 0 .2-.1v-.1zM196.6 47.3c.1 0 .2-.1.2-.2l.8-6.7v-.2l-32-40.2h-.2s-.1.1-.1.2l3.3 33.6-2.4 13.4h30.4z"/></g><g><path fill="#fff" d="M151.2 47.2h-11l.8-4.6c-3.2 3.4-7.1 5.5-11.5 5.5-4.2 0-8.6-1.8-8.6-8.6 0-.9.1-2.3.3-3.4l4.2-23.9h11l-4 23.1c-.1.5-.1.8-.1.9 0 2.4 1.2 3.1 2.8 3.1 2.5 0 4.8-1.6 7.2-3.9l4-23.2h11l-6.1 35z"/><path fill="#fff" d="M119 20.9c-.7-.1-1.9-.1-2.6-.1-4.7 0-8.3 3.1-9.7 4.7l-3.8 21.7h-11l6.1-35.2h11l-1 5.9c2.1-3.9 5.6-6.8 10-6.8 1 0 1.9.1 2.6.4l-1.6 9.4z"/><path fill="#fff" d="M85.4 47.2h-11l.8-4.6c-3.2 3.4-7.1 5.5-11.5 5.5-4.2 0-8.6-1.8-8.6-8.6 0-.9.1-2.3.3-3.4l4.1-24.1h11l-4 23.1c-.1.5-.1.8-.1.9 0 2.4 1.2 3.1 2.8 3.1 2.5 0 4.8-1.6 7.2-3.9l4-23.2h11l-6 35.2z"/><path fill="#fff" d="M50.1 21.7c-2.7-1.6-5.8-2.7-8.4-2.7-2.5 0-4.7 1.1-4.7 2.9 0 4.6 14 2.2 14 13.2 0 7.6-6.6 12.3-16.4 12.3-4.7 0-9.6-1.1-13.3-3l3.4-7.6c3.1 1.6 6.8 2.8 9.9 2.8 3.1 0 5.8-1.2 5.8-3.3 0-4.8-14-2.9-14-13.5 0-7.2 6.3-11.9 15.3-11.9 4.4 0 8.6 1.2 11.9 2.9l-3.5 7.9z"/><path fill="#fff" d="M16 20h6.5l1.4-8.1h-6.5l2.1-11.6h-11l-2.1 11.6h-5l-1.4 8.1h5l-2.6 14.7c-.3 1.5-.5 3-.5 4.4 0 6.6 4.5 8.1 9.6 8.1 2.5 0 4.6-.3 6.3-.8l1.5-8.1c-1 .3-2.1.5-3.4.5-2.1 0-2.7-.8-2.7-2.5 0-.5.1-.8.1-1.2l2.7-15.1z"/></g></svg>